<mxfile host="app.diagrams.net" modified="2024-05-20T13:53:11.628Z" agent="Mozilla/5.0 (X11; Ubuntu; Linux x86_64; rv:109.0) Gecko/20100101 Firefox/116.0" etag="5PG5W25OvbJkHAm8Khj0" version="24.4.4" type="github">
  <diagram name="Page-1" id="qQ2ZZFaXmuLjejNXjZxj">
    <mxGraphModel dx="1364" dy="749" grid="1" gridSize="10" guides="1" tooltips="1" connect="1" arrows="1" fold="1" page="1" pageScale="1" pageWidth="827" pageHeight="1169" math="0" shadow="0">
      <root>
        <mxCell id="0" />
        <mxCell id="1" parent="0" />
        <mxCell id="iryajkhhMBuzf82uodvV-4" value="&lt;div&gt;S&lt;/div&gt;&lt;div&gt;O&lt;/div&gt;&lt;div&gt;F&lt;/div&gt;" style="rounded=0;whiteSpace=wrap;html=1;" vertex="1" parent="1">
          <mxGeometry x="40" y="360" width="40" height="80" as="geometry" />
        </mxCell>
        <mxCell id="iryajkhhMBuzf82uodvV-5" value="&lt;font style=&quot;font-size: 13px;&quot;&gt;&lt;b&gt;&lt;font style=&quot;font-size: 13px;&quot; face=&quot;Times New Roman&quot;&gt;11 Bit &amp;nbsp;&amp;nbsp; Identifier&lt;/font&gt;&lt;/b&gt;&lt;/font&gt;" style="rounded=0;whiteSpace=wrap;html=1;" vertex="1" parent="1">
          <mxGeometry x="80" y="360" width="80" height="80" as="geometry" />
        </mxCell>
        <mxCell id="iryajkhhMBuzf82uodvV-18" style="edgeStyle=orthogonalEdgeStyle;rounded=0;orthogonalLoop=1;jettySize=auto;html=1;" edge="1" parent="1" source="iryajkhhMBuzf82uodvV-6">
          <mxGeometry relative="1" as="geometry">
            <mxPoint x="180" y="320" as="targetPoint" />
          </mxGeometry>
        </mxCell>
        <mxCell id="iryajkhhMBuzf82uodvV-6" value="&lt;div&gt;&lt;b&gt;S&lt;/b&gt;&lt;/div&gt;&lt;div&gt;&lt;b&gt;R&lt;/b&gt;&lt;/div&gt;&lt;div&gt;&lt;b&gt;R&lt;/b&gt;&lt;br&gt;&lt;/div&gt;" style="rounded=0;whiteSpace=wrap;html=1;" vertex="1" parent="1">
          <mxGeometry x="160" y="360" width="40" height="80" as="geometry" />
        </mxCell>
        <mxCell id="iryajkhhMBuzf82uodvV-7" value="&lt;div&gt;&lt;font face=&quot;Times New Roman&quot;&gt;&lt;b&gt;I&lt;/b&gt;&lt;/font&gt;&lt;/div&gt;&lt;div&gt;&lt;font face=&quot;QsN-0UjsSCrSD5k7TdJo&quot;&gt;&lt;b&gt;D&lt;/b&gt;&lt;/font&gt;&lt;/div&gt;&lt;div&gt;&lt;b&gt;&lt;font face=&quot;QsN-0UjsSCrSD5k7TdJo&quot;&gt;E&lt;/font&gt;&lt;br&gt;&lt;/b&gt;&lt;/div&gt;" style="rounded=0;whiteSpace=wrap;html=1;" vertex="1" parent="1">
          <mxGeometry x="200" y="360" width="40" height="80" as="geometry" />
        </mxCell>
        <mxCell id="iryajkhhMBuzf82uodvV-8" value="&lt;div&gt;&lt;font face=&quot;Times New Roman&quot;&gt;&lt;b&gt;18 Bit &lt;br&gt;&lt;/b&gt;&lt;/font&gt;&lt;/div&gt;&lt;div&gt;&lt;font face=&quot;wAF-OrECbSB6G3bs_wlJ&quot;&gt;&lt;b&gt;Identifier&lt;/b&gt;&lt;/font&gt;&lt;br&gt;&lt;/div&gt;" style="rounded=0;whiteSpace=wrap;html=1;" vertex="1" parent="1">
          <mxGeometry x="240" y="360" width="80" height="80" as="geometry" />
        </mxCell>
        <mxCell id="iryajkhhMBuzf82uodvV-9" value="&lt;div&gt;&lt;font face=&quot;Times New Roman&quot;&gt;&lt;b&gt;R&lt;/b&gt;&lt;/font&gt;&lt;/div&gt;&lt;div&gt;&lt;font face=&quot;Vx1dREk90Dh-DFUNo5-9&quot;&gt;&lt;b&gt;T&lt;/b&gt;&lt;/font&gt;&lt;/div&gt;&lt;div&gt;&lt;font face=&quot;Vx1dREk90Dh-DFUNo5-9&quot;&gt;&lt;b&gt;R&lt;/b&gt;&lt;/font&gt;&lt;br&gt;&lt;/div&gt;" style="rounded=0;whiteSpace=wrap;html=1;" vertex="1" parent="1">
          <mxGeometry x="320" y="360" width="40" height="80" as="geometry" />
        </mxCell>
        <mxCell id="iryajkhhMBuzf82uodvV-10" value="R1" style="rounded=0;whiteSpace=wrap;html=1;" vertex="1" parent="1">
          <mxGeometry x="360" y="360" width="40" height="80" as="geometry" />
        </mxCell>
        <mxCell id="iryajkhhMBuzf82uodvV-11" value="R0" style="rounded=0;whiteSpace=wrap;html=1;" vertex="1" parent="1">
          <mxGeometry x="400" y="360" width="40" height="80" as="geometry" />
        </mxCell>
        <mxCell id="iryajkhhMBuzf82uodvV-12" value="&lt;font face=&quot;Times New Roman&quot;&gt;&lt;b&gt;DLC&lt;/b&gt;&lt;/font&gt;" style="rounded=0;whiteSpace=wrap;html=1;" vertex="1" parent="1">
          <mxGeometry x="440" y="360" width="80" height="80" as="geometry" />
        </mxCell>
        <mxCell id="iryajkhhMBuzf82uodvV-13" value="&lt;b&gt;DATA&lt;/b&gt;" style="rounded=0;whiteSpace=wrap;html=1;" vertex="1" parent="1">
          <mxGeometry x="520" y="360" width="120" height="80" as="geometry" />
        </mxCell>
        <mxCell id="iryajkhhMBuzf82uodvV-14" value="&lt;div&gt;&lt;font face=&quot;Times New Roman&quot;&gt;&lt;b&gt;C&lt;/b&gt;&lt;/font&gt;&lt;/div&gt;&lt;div&gt;&lt;font face=&quot;QnLmP5_4tKMt6XVGKwvY&quot;&gt;&lt;b&gt;R&lt;/b&gt;&lt;/font&gt;&lt;/div&gt;&lt;div&gt;&lt;b&gt;&lt;font face=&quot;QnLmP5_4tKMt6XVGKwvY&quot;&gt;C&lt;/font&gt;&lt;br&gt;&lt;/b&gt;&lt;/div&gt;" style="rounded=0;whiteSpace=wrap;html=1;" vertex="1" parent="1">
          <mxGeometry x="640" y="360" width="40" height="80" as="geometry" />
        </mxCell>
        <mxCell id="iryajkhhMBuzf82uodvV-15" value="&lt;b&gt;&lt;font face=&quot;Times New Roman&quot;&gt;ACK&lt;/font&gt;&lt;/b&gt;" style="rounded=0;whiteSpace=wrap;html=1;" vertex="1" parent="1">
          <mxGeometry x="680" y="360" width="40" height="80" as="geometry" />
        </mxCell>
        <mxCell id="iryajkhhMBuzf82uodvV-16" value="&lt;div&gt;&lt;b&gt;E&lt;/b&gt;&lt;/div&gt;&lt;div&gt;&lt;b&gt;O&lt;/b&gt;&lt;/div&gt;&lt;div&gt;&lt;b&gt;F&lt;/b&gt;&lt;br&gt;&lt;/div&gt;" style="rounded=0;whiteSpace=wrap;html=1;" vertex="1" parent="1">
          <mxGeometry x="720" y="360" width="40" height="80" as="geometry" />
        </mxCell>
        <mxCell id="iryajkhhMBuzf82uodvV-20" value="&lt;b&gt;&lt;font face=&quot;Times New Roman&quot;&gt;Substitute Remote Request &lt;/font&gt;&lt;/b&gt;" style="whiteSpace=wrap;html=1;aspect=fixed;" vertex="1" parent="1">
          <mxGeometry x="130" y="220" width="100" height="100" as="geometry" />
        </mxCell>
      </root>
    </mxGraphModel>
  </diagram>
</mxfile>
